<svg width="2823" height="807" viewBox="0 0 2823 807" fill="none" xmlns="http://www.w3.org/2000/svg">
<rect width="2823" height="807" />
<g filter="url(#filter0_i_1906_125775)">
<path d="M824.035 533.69H668.617C650.556 533.69 633.604 530.363 617.762 523.709C602.236 516.738 588.452 507.233 576.412 495.192C564.688 483.151 555.499 469.368 548.845 453.842C542.191 437.999 538.864 421.047 538.864 402.987C538.864 384.926 542.191 368.132 548.845 352.606C555.499 336.764 564.688 322.822 576.412 310.781C588.452 298.741 602.236 289.393 617.762 282.739C633.604 275.769 650.556 272.283 668.617 272.283H824.035V319.812H668.617C653.408 319.812 639.625 323.614 627.267 331.219C614.91 338.823 604.929 348.963 597.324 361.637C590.037 373.994 586.393 387.778 586.393 402.987C586.393 418.196 590.037 432.137 597.324 444.812C604.929 457.169 614.91 467.15 627.267 474.755C639.625 482.359 653.408 486.162 668.617 486.162H824.035V533.69Z" fill="white"/>
<path d="M1186.72 402.987C1186.72 421.047 1183.39 437.999 1176.74 453.842C1170.08 469.368 1160.74 483.151 1148.7 495.192C1136.97 507.233 1123.19 516.738 1107.35 523.709C1091.82 530.363 1075.03 533.69 1056.97 533.69H983.772C965.711 533.69 948.759 530.363 932.917 523.709C917.391 516.738 903.607 507.233 891.567 495.192C879.843 483.151 870.654 469.368 864 453.842C857.346 437.999 854.019 421.047 854.019 402.987C854.019 384.926 857.346 368.132 864 352.606C870.654 336.764 879.843 322.822 891.567 310.781C903.607 298.741 917.391 289.393 932.917 282.739C948.759 275.769 965.711 272.283 983.772 272.283H1056.97C1075.03 272.283 1091.82 275.769 1107.35 282.739C1123.19 289.393 1136.97 298.741 1148.7 310.781C1160.74 322.822 1170.08 336.764 1176.74 352.606C1183.39 368.132 1186.72 384.926 1186.72 402.987ZM1139.19 402.987C1139.19 387.778 1135.55 373.994 1128.26 361.637C1120.97 348.963 1110.99 338.823 1098.32 331.219C1085.96 323.614 1072.18 319.812 1056.97 319.812H983.772C968.563 319.812 954.78 323.614 942.422 331.219C930.065 338.823 920.084 348.963 912.479 361.637C905.192 373.994 901.548 387.778 901.548 402.987C901.548 418.196 905.192 432.137 912.479 444.812C920.084 457.169 930.065 467.15 942.422 474.755C954.78 482.359 968.563 486.162 983.772 486.162H1056.97C1072.18 486.162 1085.96 482.359 1098.32 474.755C1110.99 467.15 1120.97 457.169 1128.26 444.812C1135.55 432.137 1139.19 418.196 1139.19 402.987Z" fill="white"/>
<path d="M1530.15 319.812L1301.06 486.162H1530.15V533.69H1221.21V486.162L1449.83 319.812H1221.21V272.283H1530.15V319.812Z" fill="white"/>
<path d="M1632.04 533.69H1584.51V272.283H1834.99C1853.05 272.283 1869.84 275.769 1885.37 282.739C1901.21 289.393 1914.99 298.741 1926.72 310.781C1938.76 322.822 1948.1 336.764 1954.76 352.606C1961.41 368.132 1964.74 384.926 1964.74 402.987V533.69H1917.21V402.987C1917.21 387.778 1913.57 373.994 1906.28 361.637C1898.99 348.963 1889.01 338.823 1876.34 331.219C1863.98 323.614 1850.19 319.812 1834.99 319.812H1798.39V533.69H1750.86V319.812H1632.04V533.69Z" fill="white"/>
<path d="M2344.76 402.987C2344.76 421.047 2341.44 437.999 2334.78 453.842C2328.13 469.368 2318.78 483.151 2306.74 495.192C2295.02 507.233 2281.23 516.738 2265.39 523.709C2249.86 530.363 2233.07 533.69 2215.01 533.69H2141.82C2123.75 533.69 2106.8 530.363 2090.96 523.709C2075.43 516.738 2061.65 507.233 2049.61 495.192C2037.89 483.151 2028.7 469.368 2022.04 453.842C2015.39 437.999 2012.06 421.047 2012.06 402.987C2012.06 384.926 2015.39 368.132 2022.04 352.606C2028.7 336.764 2037.89 322.822 2049.61 310.781C2061.65 298.741 2075.43 289.393 2090.96 282.739C2106.8 275.769 2123.75 272.283 2141.82 272.283H2215.01C2233.07 272.283 2249.86 275.769 2265.39 282.739C2281.23 289.393 2295.02 298.741 2306.74 310.781C2318.78 322.822 2328.13 336.764 2334.78 352.606C2341.44 368.132 2344.76 384.926 2344.76 402.987ZM2297.23 402.987C2297.23 387.778 2293.59 373.994 2286.3 361.637C2279.01 348.963 2269.03 338.823 2256.36 331.219C2244 323.614 2230.22 319.812 2215.01 319.812H2141.82C2126.61 319.812 2112.82 323.614 2100.47 331.219C2088.11 338.823 2078.13 348.963 2070.52 361.637C2063.24 373.994 2059.59 387.778 2059.59 402.987C2059.59 418.196 2063.24 432.137 2070.52 444.812C2078.13 457.169 2088.11 467.15 2100.47 474.755C2112.82 482.359 2126.61 486.162 2141.82 486.162H2215.01C2230.22 486.162 2244 482.359 2256.36 474.755C2269.03 467.15 2279.01 457.169 2286.3 444.812C2293.59 432.137 2297.23 418.196 2297.23 402.987Z" fill="white"/>
<path d="M2683.37 533.69H2615.4L2513.69 435.306L2413.88 533.69H2345.91L2480.89 403.462L2345.91 272.283H2413.88L2683.37 533.69ZM2683.37 272.283L2570.25 382.549L2536.03 352.131L2615.4 272.283H2683.37Z" fill="white"/>
</g>
<g filter="url(#filter1_i_1906_125775)">
<path d="M80.1914 343.042V547.001L148.554 480.898C199.514 416.811 200.546 380.103 188.103 314.228C245.693 330.938 277.973 330.482 335.564 314.228C315.919 381.027 320.293 411.435 335.564 462.253C275.147 450.126 240.916 445.316 168.329 501.237L103.161 572.425H306.185L416.357 459.993V234H188.103L80.1914 343.042Z" fill="white"/>
</g>
<defs>
<filter id="filter0_i_1906_125775" x="538.864" y="272.283" width="2150.63" height="267.532" filterUnits="userSpaceOnUse" color-interpolation-filters="sRGB">
<feFlood flood-opacity="0" result="BackgroundImageFix"/>
<feBlend mode="normal" in="SourceGraphic" in2="BackgroundImageFix" result="shape"/>
<feColorMatrix in="SourceAlpha" type="matrix" values="0 0 0 0 0 0 0 0 0 0 0 0 0 0 0 0 0 0 127 0" result="hardAlpha"/>
<feOffset dx="6.12534" dy="6.12534"/>
<feGaussianBlur stdDeviation="6.12534"/>
<feComposite in2="hardAlpha" operator="arithmetic" k2="-1" k3="1"/>
<feColorMatrix type="matrix" values="0 0 0 0 0 0 0 0 0 0 0 0 0 0 0 0 0 0 0.3 0"/>
<feBlend mode="normal" in2="shape" result="effect1_innerShadow_1906_125775"/>
</filter>
<filter id="filter1_i_1906_125775" x="80.1914" y="234" width="339.645" height="341.906" filterUnits="userSpaceOnUse" color-interpolation-filters="sRGB">
<feFlood flood-opacity="0" result="BackgroundImageFix"/>
<feBlend mode="normal" in="SourceGraphic" in2="BackgroundImageFix" result="shape"/>
<feColorMatrix in="SourceAlpha" type="matrix" values="0 0 0 0 0 0 0 0 0 0 0 0 0 0 0 0 0 0 127 0" result="hardAlpha"/>
<feOffset dx="3.48019" dy="3.48019"/>
<feGaussianBlur stdDeviation="3.48019"/>
<feComposite in2="hardAlpha" operator="arithmetic" k2="-1" k3="1"/>
<feColorMatrix type="matrix" values="0 0 0 0 0 0 0 0 0 0 0 0 0 0 0 0 0 0 0.3 0"/>
<feBlend mode="normal" in2="shape" result="effect1_innerShadow_1906_125775"/>
</filter>
</defs>
</svg>
