<svg width="172" height="42" viewBox="0 0 172 42" fill="none" xmlns="http://www.w3.org/2000/svg">
<path d="M50.8037 31.0374C48.9295 31.0374 47.2382 30.5989 45.7297 29.7218C44.244 28.8211 43.0555 27.6004 42.1641 26.0597C41.2956 24.519 40.8613 22.7886 40.8613 20.8687C40.8613 18.9487 41.2956 17.2302 42.1641 15.7132C43.0327 14.1725 44.2212 12.9636 45.7297 12.0866C47.2382 11.2096 48.9295 10.7711 50.8037 10.7711C52.1979 10.7711 53.4893 11.0199 54.6778 11.5177C55.8663 12.0155 56.8834 12.7147 57.7291 13.6155C58.5748 14.4925 59.1805 15.5354 59.5462 16.7443L55.0892 18.7354C54.7692 17.7635 54.2207 16.9932 53.4436 16.4243C52.6893 15.8554 51.8094 15.571 50.8037 15.571C49.9123 15.571 49.1124 15.7962 48.4038 16.2465C47.7181 16.6969 47.1696 17.325 46.7582 18.1309C46.3696 18.9368 46.1754 19.8613 46.1754 20.9042C46.1754 21.9472 46.3696 22.8716 46.7582 23.6775C47.1696 24.4834 47.7181 25.1116 48.4038 25.5619C49.1124 26.0123 49.9123 26.2375 50.8037 26.2375C51.8322 26.2375 52.7236 25.953 53.4779 25.3841C54.2321 24.8153 54.7692 24.0449 55.0892 23.0731L59.5462 25.0997C59.2033 26.2375 58.6091 27.2567 57.7634 28.1574C56.9177 29.0581 55.9006 29.7692 54.7121 30.2907C53.5236 30.7885 52.2208 31.0374 50.8037 31.0374Z" fill="#0D0D0D"/>
<path d="M71.8654 31.0374C70.0141 31.0374 68.3227 30.5989 66.7914 29.7218C65.2829 28.8448 64.0715 27.6478 63.1572 26.1308C62.2659 24.5901 61.8202 22.8479 61.8202 20.9042C61.8202 18.9368 62.2659 17.1947 63.1572 15.6776C64.0715 14.1606 65.2829 12.9636 66.7914 12.0866C68.3227 11.2096 70.0141 10.7711 71.8654 10.7711C73.7167 10.7711 75.3967 11.2096 76.9052 12.0866C78.4137 12.9636 79.6136 14.1606 80.505 15.6776C81.4192 17.1947 81.8764 18.9368 81.8764 20.9042C81.8764 22.8479 81.4192 24.5901 80.505 26.1308C79.6136 27.6478 78.4137 28.8448 76.9052 29.7218C75.3967 30.5989 73.7167 31.0374 71.8654 31.0374ZM71.8654 26.2375C72.8025 26.2375 73.6139 26.0123 74.2996 25.5619C75.0081 25.1116 75.5567 24.4834 75.9452 23.6775C76.3566 22.8716 76.5623 21.9472 76.5623 20.9042C76.5623 19.8613 76.3566 18.9487 75.9452 18.1665C75.5567 17.3606 75.0081 16.7324 74.2996 16.2821C73.6139 15.808 72.8025 15.571 71.8654 15.571C70.9283 15.571 70.1055 15.808 69.3969 16.2821C68.6884 16.7324 68.1284 17.3606 67.717 18.1665C67.3285 18.9487 67.1342 19.8613 67.1342 20.9042C67.1342 21.9472 67.3285 22.8716 67.717 23.6775C68.1284 24.4834 68.6884 25.1116 69.3969 25.5619C70.1055 26.0123 70.9283 26.2375 71.8654 26.2375Z" fill="#0D0D0D"/>
<path d="M83.3974 30.6107V26.3441L94.1627 14.0421L94.9169 15.8199H83.8431V11.1977H99.4767V15.4643L88.9858 27.8019L88.2315 25.9886H99.511V30.6107H83.3974Z" fill="#0D0D0D"/>
<path d="M101.78 30.6107V11.1977H106.58V15.9265L106.066 15.1443C106.34 13.651 107.003 12.5488 108.054 11.8377C109.106 11.1266 110.363 10.7711 111.825 10.7711C113.38 10.7711 114.74 11.1859 115.905 12.0155C117.094 12.8214 117.837 13.9117 118.134 15.2865L116.659 15.4288C117.277 13.8406 118.157 12.6673 119.299 11.9088C120.442 11.1503 121.779 10.7711 123.311 10.7711C124.659 10.7711 125.848 11.0792 126.876 11.6955C127.927 12.3118 128.75 13.1769 129.345 14.291C129.939 15.3813 130.236 16.6613 130.236 18.1309V30.6107H125.093V19.2687C125.093 18.5102 124.956 17.8583 124.682 17.3132C124.431 16.768 124.065 16.3413 123.585 16.0332C123.105 15.725 122.522 15.571 121.836 15.571C121.174 15.571 120.591 15.725 120.088 16.0332C119.608 16.3413 119.231 16.768 118.956 17.3132C118.705 17.8583 118.579 18.5102 118.579 19.2687V30.6107H113.437V19.2687C113.437 18.5102 113.3 17.8583 113.025 17.3132C112.774 16.768 112.408 16.3413 111.928 16.0332C111.448 15.725 110.865 15.571 110.18 15.571C109.517 15.571 108.934 15.725 108.431 16.0332C107.951 16.3413 107.574 16.768 107.3 17.3132C107.048 17.8583 106.923 18.5102 106.923 19.2687V30.6107H101.78Z" fill="#0D0D0D"/>
<path d="M142.911 31.0374C141.06 31.0374 139.368 30.5989 137.837 29.7218C136.329 28.8448 135.117 27.6478 134.203 26.1308C133.312 24.5901 132.866 22.8479 132.866 20.9042C132.866 18.9368 133.312 17.1947 134.203 15.6776C135.117 14.1606 136.329 12.9636 137.837 12.0866C139.368 11.2096 141.06 10.7711 142.911 10.7711C144.762 10.7711 146.442 11.2096 147.951 12.0866C149.459 12.9636 150.659 14.1606 151.551 15.6776C152.465 17.1947 152.922 18.9368 152.922 20.9042C152.922 22.8479 152.465 24.5901 151.551 26.1308C150.659 27.6478 149.459 28.8448 147.951 29.7218C146.442 30.5989 144.762 31.0374 142.911 31.0374ZM142.911 26.2375C143.848 26.2375 144.66 26.0123 145.345 25.5619C146.054 25.1116 146.602 24.4834 146.991 23.6775C147.402 22.8716 147.608 21.9472 147.608 20.9042C147.608 19.8613 147.402 18.9487 146.991 18.1665C146.602 17.3606 146.054 16.7324 145.345 16.2821C144.66 15.808 143.848 15.571 142.911 15.571C141.974 15.571 141.151 15.808 140.443 16.2821C139.734 16.7324 139.174 17.3606 138.763 18.1665C138.374 18.9487 138.18 19.8613 138.18 20.9042C138.18 21.9472 138.374 22.8716 138.763 23.6775C139.174 24.4834 139.734 25.1116 140.443 25.5619C141.151 26.0123 141.974 26.2375 142.911 26.2375Z" fill="#0D0D0D"/>
<path d="M171.998 30.4287L158.667 11.8598H152.953L159.619 20.9062L152.953 30.4287H159.143L162.476 25.1913L166.285 30.4287H171.998Z" fill="#0D0D0D"/>
<path d="M165.812 20.4302L162.955 16.6211L166.288 11.8599H172.002L165.812 20.4302Z" fill="#0D0D0D"/>
<path d="M10.38 35.2527L6.35676 15.3311L10.4195 16.9725L12.0432 31.1361L10.38 35.2527Z" fill="#0D0D0D"/>
<path d="M22.5203 4.91523L6.77123 14.3093L10.9358 15.9919L20.8335 9.09006L22.5203 4.91523Z" fill="#0D0D0D"/>
<path d="M15.6357 37.3815L32.3685 25.8458L28.3058 24.2044L17.2989 33.2649L15.6357 37.3815Z" fill="#0D0D0D"/>
<path d="M27.9797 7.126L32.7829 24.8238L28.6184 23.1412L26.293 11.3008L27.9797 7.126Z" fill="#0D0D0D"/>
<path d="M12.2821 17.0317L23.652 9.50416L26.4917 22.7728L14.4664 32.2394L12.2821 17.0317Z" fill="#0D0D0D"/>
</svg>
